<?xml version="1.0" encoding="iso-8859-1"?>
<!-- Generator: Adobe Illustrator 18.0.0, SVG Export Plug-In . SVG Version: 6.00 Build 0)  -->
<!DOCTYPE svg PUBLIC "-//W3C//DTD SVG 1.1//EN" "http://www.w3.org/Graphics/SVG/1.1/DTD/svg11.dtd">
<svg version="1.1" id="_x31_" xmlns="http://www.w3.org/2000/svg" xmlns:xlink="http://www.w3.org/1999/xlink" x="0px" y="0px"
	 viewBox="0 0 512 512" style="enable-background:new 0 0 512 512;" xml:space="preserve">
<g>
	<rect style="fill:#525252;" width="512" height="512"/>
	<path style="opacity:0.1;fill:#040000;" d="M512,336.538V512H314.368l-96.205-96.154l-25.958-26.009l-0.922-0.922
		c0,0-0.103-0.051-0.103-0.103c-0.205-0.307-0.358-0.614-0.563-0.973c-1.638-2.867-3.072-5.836-4.301-8.96
		c-0.205-0.46-0.409-0.973-0.563-1.485c-1.178-3.122-2.15-6.297-2.867-9.625c-0.205-0.87-0.41-1.741-0.563-2.611
		c-0.256-1.178-0.41-2.355-0.563-3.534c-0.154-0.921-0.307-1.842-0.358-2.815c-0.154-1.229-0.256-2.457-0.307-3.737
		c-0.051-1.331-0.102-2.611-0.102-3.891V143.719c0-31.846,25.958-57.805,57.856-57.805c1.331,0,2.714,0.051,4.045,0.154
		c1.587,0.103,3.174,0.256,4.762,0.513c1.178,0.204,2.355,0.409,3.482,0.665c1.639,0.359,3.277,0.767,4.864,1.28
		c0.256,0.103,0.512,0.154,0.768,0.256c1.28,0.409,2.611,0.921,3.891,1.434c0.051,0,0.103,0.05,0.154,0.05
		c0.307,0.155,0.665,0.308,0.972,0.41c0.051,0.051,0.103,0.102,0.154,0.102c0.666,0.256,1.331,0.564,1.946,0.87
		c0.717,0.359,1.433,0.717,2.15,1.076c0.154,0.101,0.307,0.154,0.461,0.256c1.229,0.665,2.406,1.382,3.584,2.099
		c0.153,0.154,0.358,0.256,0.512,0.359c0.051,0.05,0.103,0.05,0.153,0.103c0.205,0.152,0.461,0.306,0.666,0.46
		c0.051,0.051,0.154,0.103,0.205,0.154l15.002,15.001c0.051,0.103,0.103,0.154,0.205,0.256l38.656,38.605l0.051,0.051L512,336.538z"
		/>
	<path style="fill:none;" d="M259.353,307.256c8.281-1.886,14.49-9.264,14.49-18.09V143.851c0-4.861-0.982-9.495-2.763-13.715
		c0.507,0.666,0.901,1.414,1.36,2.115c-2.871-8.361-8.815-15.27-16.441-19.507v194.851
		C257.144,307.579,258.267,307.47,259.353,307.256z"/>
	<path style="fill:none;" d="M214.815,289.03v-93.866c0-6.165,4.998-11.164,11.163-11.164c6.166,0,11.163,4.999,11.163,11.164
		v93.866c0,10.25,8.353,18.589,18.62,18.589c0.082,0,0.157-0.022,0.238-0.024V112.744c-5.09-2.827-10.908-4.496-17.138-4.496
		c-19.585,0-35.519,15.911-35.519,35.47v6.334v140.793v60.348c0,25.225,17.882,46.341,41.646,51.412
		c0.4,0.081,0.802,0.156,1.206,0.228c1.218,0.231,2.45,0.421,3.696,0.565c1.83,0.194,3.672,0.346,5.553,0.346
		c0.188,0,0.37-0.026,0.557-0.027v-73.781c-0.08,0-0.158,0.011-0.238,0.011C233.183,329.945,214.815,311.591,214.815,289.03z"/>
	<g>
		<g>
			<path style="fill:#F2F2F2;" d="M331.008,150.068v201.114c0,41.319-33.638,74.905-75.008,74.905
				c-13.773,0-26.727-3.738-37.837-10.24c-9.933-5.836-18.432-13.875-24.781-23.449c-0.051-0.102-0.102-0.256-0.205-0.359
				c-0.717-1.024-1.382-2.099-1.997-3.226c-0.205-0.307-0.358-0.614-0.563-0.973c-1.638-2.867-3.072-5.836-4.301-8.96
				c-0.205-0.46-0.409-0.973-0.563-1.485c-1.178-3.122-2.15-6.297-2.867-9.625c-0.205-0.87-0.41-1.741-0.563-2.611
				c-0.256-1.178-0.41-2.355-0.563-3.534c-0.154-0.921-0.307-1.842-0.358-2.815c-0.154-1.229-0.256-2.457-0.307-3.737
				c-0.051-1.331-0.102-2.611-0.102-3.891V143.719c0-31.846,25.958-57.805,57.856-57.805c1.331,0,2.714,0.051,4.045,0.154
				c1.587,0.103,3.174,0.256,4.762,0.513c1.178,0.204,2.355,0.409,3.482,0.665c1.639,0.359,3.277,0.767,4.864,1.28
				c0.256,0.103,0.512,0.154,0.768,0.256c1.28,0.409,2.611,0.921,3.891,1.434c0.051,0,0.103,0.05,0.154,0.05
				c0.307,0.155,0.665,0.308,0.972,0.41c0.051,0.051,0.103,0.102,0.154,0.102c0.666,0.256,1.331,0.564,1.946,0.87
				c0.717,0.359,1.433,0.717,2.15,1.076c0.154,0.101,0.307,0.154,0.461,0.256c1.229,0.665,2.406,1.382,3.584,2.099
				c0.153,0.154,0.358,0.256,0.512,0.359c0.051,0.05,0.103,0.05,0.153,0.103c0.205,0.152,0.461,0.306,0.666,0.46
				c0.051,0.051,0.154,0.103,0.205,0.154c0.102,0,0.153,0.051,0.205,0.154c0.563,0.357,1.127,0.767,1.639,1.126
				c0.717,0.564,1.485,1.126,2.201,1.69c0.103,0.101,0.205,0.204,0.307,0.306c0.051,0.052,0.051,0.052,0.102,0.052
				c0.461,0.409,0.922,0.819,1.383,1.228c0.768,0.666,1.485,1.333,2.202,2.049c0.153,0.154,0.307,0.359,0.512,0.564
				c0.512,0.511,1.024,1.022,1.485,1.535c0.359,0.359,0.666,0.768,1.024,1.126c0.256,0.359,0.512,0.666,0.819,0.974
				c0.153,0.205,0.358,0.46,0.512,0.665c0.41,0.513,0.819,1.024,1.178,1.536c0.256,0.306,0.461,0.614,0.666,0.921
				c0.154,0.256,0.358,0.512,0.563,0.768c0.051,0.102,0.153,0.205,0.205,0.307s0.103,0.154,0.205,0.256
				c0,0.051,0.051,0.154,0.102,0.205c0.051,0.051,0.103,0.154,0.153,0.205c0.256,0.359,0.512,0.768,0.717,1.178
				c0.205,0.256,0.358,0.511,0.512,0.767c0.409,0.666,0.768,1.383,1.177,2.049c0.205,0.409,0.41,0.767,0.614,1.177
				c0.307,0.563,0.614,1.126,0.87,1.69v0.05h0.051c0,0.051,0.051,0.051,0.051,0.103c1.331,2.765,2.406,5.684,3.277,8.653
				c0.307,1.076,0.563,2.1,0.819,3.124c0.256,1.075,0.461,2.151,0.666,3.226c0.205,1.075,0.358,2.15,0.461,3.225
				c0.153,1.075,0.256,2.201,0.307,3.277c0.051,1.125,0.102,2.253,0.102,3.379v147.149c0,0.665-0.051,1.28-0.154,1.895
				c-0.256,2.61-0.717,5.17-1.434,7.577c-1.741,6.092-4.915,11.622-9.062,16.23c-1.382,1.485-2.867,2.867-4.404,4.045
				c-1.229,1.126-2.611,2.099-3.993,2.969c-1.075,0.666-2.15,1.28-3.226,1.844c-2.304,1.178-4.71,2.15-7.219,2.868
				c-1.178,0.357-2.407,0.665-3.635,0.87c-1.28,0.256-2.56,0.46-3.891,0.563c-1.229,0.155-2.457,0.205-3.686,0.205h-0.256
				c-22.579,0-40.909-18.329-40.909-40.909v-93.849c0-6.195,4.967-11.163,11.162-11.163c6.144,0,11.161,4.967,11.161,11.163v93.849
				c0,10.24,8.346,18.586,18.586,18.586H256c1.126-0.051,2.253-0.154,3.328-0.359h0.154c0.512-0.103,0.973-0.205,1.433-0.359
				c7.782-2.252,13.466-9.42,13.466-17.869V143.719c0-3.994-0.666-7.885-1.946-11.469c0-0.154-0.051-0.256-0.102-0.359
				c0-0.051,0-0.051-0.051-0.051c-0.256-0.87-0.614-1.74-1.024-2.56c-0.051-0.102-0.103-0.205-0.154-0.307
				c-0.358-0.921-0.819-1.843-1.382-2.713c-3.174-5.735-7.987-10.445-13.722-13.62c-5.12-2.816-10.957-4.402-17.152-4.402
				c-19.558,0-35.482,15.923-35.482,35.481v207.463c0,27.239,20.736,49.612,47.258,52.326c0.768,0.051,1.587,0.102,2.355,0.205
				c0.819,0.051,1.638,0.051,2.458,0.051H256c0.717,0,1.433-0.051,2.15-0.051c28.057-1.128,50.483-24.217,50.483-52.531V150.068
				H331.008z"/>
			<path style="opacity:0.07;fill:#040000;" d="M273.843,289.166V143.851c0-4.862-0.982-9.495-2.763-13.714
				c4.532,5.956,7.228,13.379,7.228,21.423v145.315c0,10.248-8.35,18.587-18.621,18.587c-8.473,0-15.646-5.682-17.889-13.424
				c3.394,3.522,8.155,5.716,13.424,5.716C265.493,307.753,273.843,299.414,273.843,289.166z"/>
			<path style="fill:#FFFFFF;" d="M290.099,116.993c0.307,0.563,0.614,1.126,0.87,1.69c-0.051-0.053-0.102-0.053-0.102-0.103
				c-8.141-11.725-20.48-20.327-34.867-23.501c-4.096-0.974-8.295-1.434-12.647-1.434c-31.897,0-57.856,25.908-57.856,57.805
				v207.463c0,11.008,2.355,21.504,6.707,30.925c0.307,0.768,0.666,1.485,0.973,2.201c-0.666-1.024-1.331-2.049-1.894-3.124
				c0,0-0.103-0.051-0.103-0.103c-0.205-0.307-0.358-0.614-0.563-0.973c-1.638-2.867-3.072-5.836-4.301-8.96
				c-0.205-0.46-0.409-0.973-0.563-1.485c-1.178-3.122-2.15-6.297-2.867-9.625c-0.205-0.87-0.41-1.741-0.563-2.611
				c-0.256-1.178-0.41-2.355-0.563-3.534c-0.154-0.921-0.307-1.842-0.358-2.815c-0.154-1.229-0.256-2.457-0.307-3.737
				c-0.051-1.331-0.102-2.611-0.102-3.891V143.719c0-31.846,25.958-57.805,57.856-57.805c1.331,0,2.714,0.051,4.045,0.154
				c1.587,0.103,3.174,0.256,4.762,0.513c1.178,0.204,2.355,0.409,3.482,0.665c1.639,0.359,3.277,0.767,4.864,1.28
				c0.256,0.103,0.512,0.154,0.768,0.256c1.28,0.409,2.611,0.921,3.891,1.434c0.051,0,0.103,0.05,0.154,0.05
				c0.307,0.155,0.665,0.308,0.972,0.41c0.051,0.051,0.103,0.102,0.154,0.102c0.666,0.256,1.331,0.564,1.946,0.87
				c0.717,0.359,1.433,0.717,2.15,1.076c0.154,0.101,0.307,0.154,0.461,0.256c1.229,0.665,2.406,1.382,3.584,2.099
				c0.153,0.154,0.358,0.256,0.512,0.359c0.051,0.05,0.103,0.05,0.153,0.103c0.205,0.152,0.461,0.306,0.666,0.46
				c0.051,0.051,0.154,0.103,0.205,0.154l0.051,0.051c0.051,0.051,0.102,0.051,0.153,0.103c0.563,0.357,1.127,0.767,1.639,1.126
				c0.512,0.461,1.024,0.819,1.536,1.229c0.256,0.154,0.461,0.308,0.666,0.461c0.103,0.101,0.205,0.204,0.307,0.306
				c0.051,0.052,0.051,0.052,0.102,0.052c0.461,0.409,0.922,0.819,1.383,1.228c0.768,0.666,1.485,1.333,2.202,2.049
				c0.153,0.154,0.307,0.359,0.512,0.564c0.512,0.511,0.973,1.022,1.434,1.535h0.051c0.359,0.359,0.666,0.768,1.024,1.126
				c0.103,0.154,0.256,0.307,0.307,0.461c0.205,0.154,0.358,0.359,0.512,0.512c0.153,0.205,0.358,0.46,0.512,0.665
				c0.41,0.513,0.819,1.024,1.178,1.536c0.256,0.306,0.461,0.614,0.666,0.921c0.154,0.256,0.358,0.512,0.563,0.768
				c0.051,0.102,0.153,0.205,0.205,0.307s0.103,0.154,0.205,0.256c0,0.051,0.051,0.154,0.102,0.205
				c0.051,0.051,0.103,0.154,0.153,0.205c0.256,0.359,0.512,0.768,0.717,1.178c0.205,0.256,0.358,0.511,0.512,0.767
				c0.409,0.666,0.768,1.383,1.177,2.049C289.689,116.224,289.894,116.582,290.099,116.993z"/>
			<path style="fill:#FFFFFF;" d="M290.969,118.732v-0.05c0.051,0,0.051,0.05,0.051,0.05H290.969z"/>
			<g style="opacity:0.07;">
				<path style="fill:#040000;" d="M330.428,150.013v7.708h-17.862v201.144c0,28.997-23.622,52.586-52.658,52.586
					c-21.054,0-39.268-12.403-47.679-30.281c9.522,13.636,25.341,22.573,43.214,22.573c29.036,0,52.658-23.594,52.658-52.591
					V150.013H330.428z"/>
			</g>
		</g>
		<g style="opacity:0.07;">
			<path style="fill:#040000;" d="M330.428,150.051v-0.039h-22.327v201.139c0,28.809-23.323,52.26-52.101,52.564v22.393
				c41.346,0,74.984-33.608,74.984-74.916v-201.14H330.428z"/>
			<path style="fill:#040000;" d="M290.969,118.732v-0.05c0.051,0,0.051,0.05,0.051,0.05H290.969z"/>
			<path style="fill:#040000;" d="M296.704,143.719v147.149c0,0.665-0.051,1.28-0.154,1.895c-0.256,2.61-0.717,5.17-1.434,7.577
				c-1.741,6.092-4.915,11.622-9.062,16.23c-1.331,1.434-2.816,2.815-4.404,4.045c-1.229,1.126-2.611,2.099-3.993,2.969
				c-1.075,0.666-2.15,1.28-3.226,1.844c-2.304,1.178-4.71,2.15-7.219,2.868c-1.178,0.357-2.407,0.665-3.635,0.87
				c-1.28,0.256-2.56,0.46-3.891,0.563c-1.229,0.155-2.457,0.205-3.686,0.205V307.61c1.126-0.051,2.253-0.154,3.328-0.359
				c2.611-0.614,4.967-1.741,7.066-3.276c0.41-0.307,0.819-0.615,1.177-0.973c0.41-0.307,0.768-0.666,1.127-1.076
				c0.358-0.359,0.666-0.716,1.024-1.126c0.666-0.767,1.229-1.637,1.741-2.56c0.154-0.256,0.307-0.512,0.461-0.819
				c0.307-0.615,0.614-1.28,0.819-1.997c0.205-0.409,0.307-0.87,0.461-1.381c0-0.053,0.051-0.103,0.102-0.205
				c0.103-0.461,0.205-0.922,0.256-1.434c0.102-0.461,0.153-0.871,0.205-1.331c0.051-0.615,0.102-1.28,0.102-1.895V143.872
				c0-4.865-1.024-9.524-2.765-13.723c0.461,0.666,0.871,1.383,1.331,2.1c-0.051-0.154-0.102-0.256-0.153-0.41
				c-0.307-0.87-0.666-1.74-1.024-2.56c-0.051-0.102-0.103-0.205-0.154-0.307c-0.409-0.921-0.87-1.791-1.382-2.713
				c-3.226-5.632-7.987-10.342-13.722-13.518V88.525c0.256,0.103,0.512,0.154,0.768,0.256c1.28,0.409,2.611,0.921,3.891,1.434
				c0.051,0,0.103,0.05,0.154,0.05c0.307,0.155,0.665,0.308,0.972,0.41c0.051,0.051,0.103,0.102,0.154,0.102
				c0.666,0.256,1.331,0.564,1.946,0.87c0.717,0.359,1.433,0.717,2.15,1.076c0.154,0.101,0.307,0.154,0.461,0.256
				c1.229,0.665,2.406,1.382,3.584,2.099c0.153,0.154,0.358,0.256,0.512,0.359c0.051,0.05,0.103,0.05,0.153,0.103
				c0.205,0.152,0.461,0.306,0.666,0.46c0.051,0.051,0.154,0.103,0.205,0.154l0.051,0.051c0.051,0.051,0.102,0.051,0.153,0.103
				c0.563,0.357,1.127,0.767,1.639,1.126c0.512,0.461,1.024,0.819,1.536,1.229c0.307,0.256,0.666,0.513,0.973,0.768
				c0.051,0.052,0.051,0.052,0.102,0.052c0.461,0.409,0.922,0.819,1.383,1.228c0.768,0.666,1.485,1.333,2.202,2.049
				c0.153,0.154,0.307,0.359,0.512,0.564c0.512,0.511,0.973,1.022,1.434,1.535c0.512,0.513,0.922,1.025,1.382,1.588
				c0.358,0.359,0.614,0.717,0.922,1.126c0.666,0.819,1.28,1.639,1.946,2.509c0.154,0.256,0.358,0.512,0.563,0.768
				c0.051,0.102,0.153,0.205,0.205,0.307s0.103,0.154,0.205,0.256c0,0.051,0.051,0.154,0.102,0.205
				c0.051,0.051,0.103,0.154,0.153,0.205c0.256,0.359,0.512,0.768,0.717,1.178c0.205,0.256,0.358,0.511,0.512,0.767
				c0.409,0.666,0.768,1.383,1.177,2.049c0.205,0.409,0.41,0.767,0.614,1.177c0.307,0.563,0.614,1.126,0.87,1.69
				c-0.051-0.053-0.102-0.053-0.102-0.103c0,0.05,0.051,0.103,0.102,0.152c1.331,2.816,2.458,5.735,3.379,8.755
				c0.307,1.076,0.563,2.1,0.819,3.124c0.256,1.075,0.461,2.151,0.666,3.226c0.205,1.075,0.358,2.15,0.461,3.225
				c0.153,1.075,0.256,2.201,0.307,3.277C296.653,141.465,296.704,142.592,296.704,143.719z"/>
		</g>
	</g>
</g>
</svg>
